<?xml version="1.0" encoding="UTF-8" standalone="no"?>
<svg
   id="svg1"
   sodipodi:docname="info.svg"
   viewBox="0 0 60 60"
   sodipodi:version="0.32"
   _SVGFile__filename="oldscale/apps/gnome_info.svg"
   version="1.0"
   y="0"
   x="0"
   inkscape:version="1.1.2 (b8e25be833, 2022-02-05)"
   xmlns:inkscape="http://www.inkscape.org/namespaces/inkscape"
   xmlns:sodipodi="http://sodipodi.sourceforge.net/DTD/sodipodi-0.dtd"
   xmlns="http://www.w3.org/2000/svg"
   xmlns:svg="http://www.w3.org/2000/svg"
   xmlns:rdf="http://www.w3.org/1999/02/22-rdf-syntax-ns#"
   xmlns:cc="http://creativecommons.org/ns#"
   xmlns:dc="http://purl.org/dc/elements/1.1/">
  <defs
     id="defs9" />
  <sodipodi:namedview
     id="base"
     bordercolor="#666666"
     inkscape:pageshadow="2"
     inkscape:window-y="-8"
     pagecolor="#ffffff"
     inkscape:window-height="985"
     inkscape:zoom="6.8218586"
     inkscape:window-x="-8"
     borderopacity="1.0"
     inkscape:current-layer="svg1"
     inkscape:cx="39.651951"
     inkscape:cy="19.496153"
     inkscape:window-width="1862"
     inkscape:pageopacity="0.0000000"
     inkscape:pagecheckerboard="0"
     showgrid="false"
     inkscape:window-maximized="1" />
  <path
     id="path1087"
     sodipodi:nodetypes="ccccc"
     style="stroke-linejoin:round;stroke:#ffffff;stroke-linecap:round;stroke-width:8.125;fill:none"
     d="m30 4.6871c-13.97 0-25.313 11.343-25.313 25.313 0.0001 13.97 11.343 25.313 25.313 25.313s25.313-11.343 25.313-25.313-11.343-25.313-25.313-25.313z" />
  <path
     id="path838"
     sodipodi:nodetypes="ccccc"
     style="fill-rule:evenodd;stroke:#000000;stroke-width:3.125;fill:#ffffff"
     d="m30 4.6871c-13.97 0-25.313 11.343-25.313 25.313 0.0001 13.97 11.343 25.313 25.313 25.313s25.313-11.343 25.313-25.313-11.343-25.313-25.313-25.313z" />
  <path
     id="path1089"
     sodipodi:nodetypes="cccccccccccccccccccc"
     style="stroke-linejoin:round;fill-rule:evenodd;stroke:#000000;stroke-linecap:round;stroke-width:1.25;fill:#000000"
     d="m30.014 10.198c1.228 0 2.255 0.432 3.125 1.302s1.302 1.91 1.302 3.153c0 1.29-0.432 2.386-1.302 3.24-0.87 0.855-1.897 1.273-3.125 1.273-1.211 0-2.254-0.432-3.124-1.302s-1.331-1.952-1.331-3.211c0-1.212 0.461-2.238 1.331-3.124s1.913-1.331 3.124-1.331zm0 13.394c1.104 0 1.978 0.383 2.662 1.128 0.699 0.731 1.041 1.646 1.041 2.749v18.427c0 1.104-0.342 2.016-1.041 2.778-0.684 0.745-1.558 1.128-2.662 1.128-1.087 0-1.991-0.383-2.69-1.128-0.684-0.762-1.041-1.674-1.041-2.778v-18.427c0-1.103 0.357-2.018 1.041-2.749 0.699-0.745 1.603-1.128 2.69-1.128z" />
  <metadata
     id="metadata6">
    <rdf:RDF>
      <cc:Work>
        <dc:format>image/svg+xml</dc:format>
        <dc:type
           rdf:resource="http://purl.org/dc/dcmitype/StillImage" />
        <cc:license
           rdf:resource="http://creativecommons.org/licenses/publicdomain/" />
        <dc:publisher>
          <cc:Agent
             rdf:about="http://openclipart.org/">
            <dc:title>Openclipart</dc:title>
          </cc:Agent>
        </dc:publisher>
      </cc:Work>
      <cc:License
         rdf:about="http://creativecommons.org/licenses/publicdomain/">
        <cc:permits
           rdf:resource="http://creativecommons.org/ns#Reproduction" />
        <cc:permits
           rdf:resource="http://creativecommons.org/ns#Distribution" />
        <cc:permits
           rdf:resource="http://creativecommons.org/ns#DerivativeWorks" />
      </cc:License>
    </rdf:RDF>
  </metadata>
</svg>
