<?xml version="1.0" encoding="UTF-8" standalone="no"?>
<svg
   id="svg1"
   sodipodi:docname="liq.svg"
   viewBox="0 0 60 60"
   sodipodi:version="0.32"
   _SVGFile__filename="oldscale/apps/apollon.svg"
   version="1.0"
   y="0"
   x="0"
   inkscape:version="1.1.2 (b8e25be833, 2022-02-05)"
   xmlns:inkscape="http://www.inkscape.org/namespaces/inkscape"
   xmlns:sodipodi="http://sodipodi.sourceforge.net/DTD/sodipodi-0.dtd"
   xmlns="http://www.w3.org/2000/svg"
   xmlns:svg="http://www.w3.org/2000/svg"
   xmlns:rdf="http://www.w3.org/1999/02/22-rdf-syntax-ns#"
   xmlns:cc="http://creativecommons.org/ns#"
   xmlns:dc="http://purl.org/dc/elements/1.1/">
  <defs
     id="defs22" />
  <sodipodi:namedview
     id="base"
     bordercolor="#666666"
     inkscape:pageshadow="2"
     inkscape:window-y="-8"
     pagecolor="#ffffff"
     inkscape:window-height="985"
     inkscape:zoom="5.0786825"
     inkscape:window-x="-8"
     borderopacity="1.0"
     inkscape:current-layer="svg1"
     inkscape:cx="62.220861"
     inkscape:cy="3.9380292"
     inkscape:window-width="1862"
     inkscape:pageopacity="0.0"
     inkscape:pagecheckerboard="0"
     showgrid="false"
     inkscape:window-maximized="1" />
  <g
     id="g1766"
     style="stroke:#ffffff"
     transform="translate(0 -50)">
    <path
       id="path1097"
       style="stroke-linejoin:round;stroke:#ffffff;stroke-linecap:round;stroke-width:8.067;fill:none"
       transform="matrix(.92971 0 0 .92971 2.0818 52.02)"
       d="m5.6539 47.375l-3.1875 5.281h55.125l-3.218-5.281h-48.719z" />
    <path
       id="path1098"
       style="stroke-linejoin:round;stroke:#ffffff;stroke-width:10.756;fill:none"
       transform="matrix(.92971 0 0 .92971 2.006 51.617)"
       d="m8.6524 48.421v-22.649" />
    <path
       id="path1102"
       style="stroke-linejoin:round;stroke:#ffffff;stroke-width:10;fill:none"
       d="m49.95 96.635v-21.057" />
    <path
       id="path1103"
       style="stroke:#ffffff;stroke-width:8.067;fill:none"
       d="m5.6826 16.865c-0.4586 0-0.8278 0.37-0.8278 0.828v7.506c0 0.458 0.3692 0.828 0.8278 0.828h48.692c0.459 0 0.828-0.37 0.828-0.828v-7.506c0-0.458-0.369-0.828-0.828-0.828h-48.692z"
       transform="matrix(.92971 0 0 .92971 2.0818 51.617)" />
    <path
       id="path1104"
       style="stroke-linejoin:round;stroke:#ffffff;stroke-linecap:round;stroke-width:8.7393;fill:none"
       transform="matrix(.92971 0 0 .92971 2.0818 52.02)"
       d="m3.0164 16.432h54.025l-26.758-8.5614-27.267 8.5614z" />
  </g>
  <path
     id="rect1764"
     sodipodi:nodetypes="ccccc"
     style="fill-rule:evenodd;color:#000000;fill:#ffffff"
     d="m8.7294 25.752h42.542v21.374h-42.542l0.0004-21.374z" />
  <g
     id="g1573"
     transform="matrix(.92971 0 0 .92971 2.0818 2.02)"
     style="stroke:#909090;stroke-opacity:1">
    <path
       id="path828"
       style="stroke-linejoin:round;fill-rule:evenodd;stroke:#909090;stroke-linecap:round;stroke-width:2.689;fill:#ffffff;stroke-opacity:1"
       d="m5.6539 47.375l-3.1875 5.281h55.125l-3.218-5.281h-48.719z" />
    <path
       id="path829"
       style="stroke:#909090;stroke-width:5.378;fill:none;stroke-opacity:1"
       transform="translate(-.081588 -0.433)"
       d="m8.6524 48.421v-22.649" />
    <path
       id="path830"
       style="stroke:#909090;stroke-width:5.378;fill:none;stroke-opacity:1"
       transform="translate(-.081588 -0.433)"
       d="m19.381 48.421v-22.649" />
    <path
       id="path831"
       style="stroke:#909090;stroke-width:5.378;fill:none;stroke-opacity:1"
       transform="translate(-.081588 -0.433)"
       d="m30.11 48.421v-22.649" />
    <path
       id="path832"
       style="stroke:#909090;stroke-width:5.378;fill:none;stroke-opacity:1"
       transform="translate(-.081588 -0.433)"
       d="m40.839 48.421v-22.649" />
    <path
       id="path833"
       style="stroke:#909090;stroke-width:5.378;fill:none;stroke-opacity:1"
       transform="translate(-.081588)"
       d="m51.569 47.988v-22.649" />
    <path
       id="rect836"
       style="fill-rule:evenodd;stroke:#909090;stroke-width:2.689;fill:#ffffff;stroke-opacity:1"
       d="m5.6826 16.865c-0.4586 0-0.8278 0.37-0.8278 0.828v7.506c0 0.458 0.3692 0.828 0.8278 0.828h48.692c0.459 0 0.828-0.37 0.828-0.828v-7.506c0-0.458-0.369-0.828-0.828-0.828h-48.692z"
       transform="translate(0 -0.433)" />
    <path
       id="path837"
       style="stroke-linejoin:round;fill-rule:evenodd;stroke:#909090;stroke-linecap:round;stroke-width:3.3613;fill:#ffffff;stroke-opacity:1"
       d="m3.0164 16.432h54.025l-26.758-8.5614-27.267 8.5614z" />
  </g>
  <metadata
     id="metadata19">
    <rdf:RDF>
      <cc:Work>
        <dc:format>image/svg+xml</dc:format>
        <dc:type
           rdf:resource="http://purl.org/dc/dcmitype/StillImage" />
        <cc:license
           rdf:resource="http://creativecommons.org/licenses/publicdomain/" />
        <dc:publisher>
          <cc:Agent
             rdf:about="http://openclipart.org/">
            <dc:title>Openclipart</dc:title>
          </cc:Agent>
        </dc:publisher>
      </cc:Work>
      <cc:License
         rdf:about="http://creativecommons.org/licenses/publicdomain/">
        <cc:permits
           rdf:resource="http://creativecommons.org/ns#Reproduction" />
        <cc:permits
           rdf:resource="http://creativecommons.org/ns#Distribution" />
        <cc:permits
           rdf:resource="http://creativecommons.org/ns#DerivativeWorks" />
      </cc:License>
    </rdf:RDF>
  </metadata>
</svg>
