<?xml version="1.0" encoding="UTF-8" standalone="no"?>
<svg
   version="1.1"
   id="Layer_1"
   x="0px"
   y="0px"
   viewBox="0 0 1641.1628 1640.0018"
   enable-background="new 0 0 1642 1640.808"
   xml:space="preserve"
   sodipodi:docname="p2p.svg"
   width="1641.1628"
   height="1640.0017"
   inkscape:version="1.1.2 (b8e25be833, 2022-02-05)"
   xmlns:inkscape="http://www.inkscape.org/namespaces/inkscape"
   xmlns:sodipodi="http://sodipodi.sourceforge.net/DTD/sodipodi-0.dtd"
   xmlns="http://www.w3.org/2000/svg"
   xmlns:svg="http://www.w3.org/2000/svg"><defs
   id="defs7" /><sodipodi:namedview
   id="namedview5"
   pagecolor="#ffffff"
   bordercolor="#666666"
   borderopacity="1.0"
   inkscape:pageshadow="2"
   inkscape:pageopacity="0.0"
   inkscape:pagecheckerboard="0"
   showgrid="false"
   fit-margin-left="20"
   lock-margins="true"
   fit-margin-top="20"
   fit-margin-right="20"
   fit-margin-bottom="20"
   inkscape:zoom="0.48695521"
   inkscape:cx="820.40399"
   inkscape:cy="655.09105"
   inkscape:window-width="1862"
   inkscape:window-height="985"
   inkscape:window-x="-8"
   inkscape:window-y="-8"
   inkscape:window-maximized="1"
   inkscape:current-layer="Layer_1" />
<path
   d="m 1517.1295,425.97177 c -1.106,-5.512 -3.798,-10.066 -7.79,-13.567 -308.923,-526.704 -1072.70501,-519.697 -1377.51601,0 -4.015,3.521 -6.692,8.088 -7.79,13.566 -139.130003,247.896 -138.292003,540.393 0,786.79303 1.099,5.479 3.773,10.043 7.79,13.567 309.66,527.957 1071.45801,521.823 1377.51601,0 3.93,-3.447 6.671,-7.982 7.789,-13.564 139.132,-247.89803 138.292,-540.39503 10e-4,-786.79303 z m -41.879,761.79003 c -43.573,6.814 -226.708,10.313 -272.028,11.144 64.008,-234.15903 65.616,-519.02403 0,-759.07603 45.862,0.841 228.419,4.324 272.026,11.144 125.704,225.972 133.887,496.1 0,736.78803 z m -611.16701,382.534 c -29.458,1.833 -57.539,1.833 -87.003,0 -137.402,-21.634 -228.148,-189.126 -273.247,-321.788 196.921,2.76 431.623,2.83 633.49901,0 -45.053,132.524 -135.825,300.153 -273.24901,321.789 z m -375.5,-370.551 c -67.596,-235.67103 -67.662,-524.85503 0,-760.75603 207.323,-3.101 457.275,-3.092 663.99701,0 67.596,235.672 67.661,524.855 0,760.75603 -206.90901,3.094 -456.81801,3.098 -663.99701,0 z M 777.10449,68.437786 c 29.332,-1.825 57.399,-1.839 86.971,10e-4 137.42301,21.631 228.16801,189.162984 273.25601,321.787984 -197.62001,-2.771 -432.50101,-2.819 -633.49901,0 44.998,-132.362 135.716,-300.147984 273.272,-321.788984 z M 1443.7075,399.17477 c -68.136,-4.408 -186.787,-6.972 -254.994,-8.148 -34.117,-105.949 -89.911,-221.852 -172.548,-296.987984 170.686,46.979984 324.478,150.065984 427.542,305.135984 z M 624.99549,94.039786 c -82.664,75.160984 -138.446,191.088984 -172.546,296.986984 -68.213,1.176 -186.86,3.741 -254.995,8.148 102.726,-154.564 256.229,-257.981 427.541,-305.134984 z m -459.082,356.932984 c 43.69,-6.832 227.787,-10.333 272.028,-11.144 -64.294,235.209 -65.345,520.023 0,759.07603 -46.077,-0.845 -228.442,-4.329 -272.027,-11.143 C 40.205487,961.77877 32.033487,691.64977 165.91349,450.97277 Z m 31.543,788.58703 c 68.075,4.403 186.604,6.969 254.994,8.147 34.35,106.675 90.242,222.153 172.547,296.988 -170.685,-46.979 -324.477,-150.064 -427.541,-305.135 z m 818.70901,305.136 c 82.656,-75.152 138.446,-191.085 172.548,-296.989 68.328,-1.177 186.901,-3.743 254.995,-8.147 -102.73,154.572 -256.246,257.987 -427.543,305.136 z"
   id="path2"
   style="stroke:#909090;stroke-opacity:1;fill:#909090;fill-opacity:1" />
</svg>
