<?xml version="1.0" encoding="UTF-8" standalone="no"?>
<svg
   id="svg1"
   sodipodi:docname="un.svg"
   viewBox="0 0 40.013 40.013"
   sodipodi:version="0.32"
   _SVGFile__filename="oldscale/apps/hw_unknown.svg"
   version="1.0"
   y="0"
   x="0"
   inkscape:version="1.1.2 (b8e25be833, 2022-02-05)"
   width="40.013"
   height="40.013"
   xmlns:inkscape="http://www.inkscape.org/namespaces/inkscape"
   xmlns:sodipodi="http://sodipodi.sourceforge.net/DTD/sodipodi-0.dtd"
   xmlns="http://www.w3.org/2000/svg"
   xmlns:svg="http://www.w3.org/2000/svg"
   xmlns:rdf="http://www.w3.org/1999/02/22-rdf-syntax-ns#"
   xmlns:cc="http://creativecommons.org/ns#"
   xmlns:dc="http://purl.org/dc/elements/1.1/">
  <defs
     id="defs1607" />
  <sodipodi:namedview
     id="base"
     bordercolor="#666666"
     inkscape:pageshadow="2"
     inkscape:window-y="-8"
     pagecolor="#ffffff"
     inkscape:window-height="985"
     inkscape:zoom="3.822188"
     inkscape:window-x="-8"
     borderopacity="1.0"
     inkscape:current-layer="svg1"
     inkscape:cx="33.881117"
     inkscape:cy="5.232605"
     inkscape:window-width="1862"
     inkscape:pageopacity="0.0"
     inkscape:pagecheckerboard="0"
     showgrid="false"
     fit-margin-left="1"
     lock-margins="true"
     fit-margin-top="1"
     fit-margin-right="1"
     fit-margin-bottom="1"
     inkscape:window-maximized="1" />
  <metadata
     id="metadata1604">
    <rdf:RDF>
      <cc:Work>
        <dc:format>image/svg+xml</dc:format>
        <dc:type
           rdf:resource="http://purl.org/dc/dcmitype/StillImage" />
        <cc:license
           rdf:resource="http://creativecommons.org/publicdomain/zero/1.0/" />
        <dc:publisher>
          <cc:Agent
             rdf:about="http://openclipart.org/">
            <dc:title>Openclipart</dc:title>
          </cc:Agent>
        </dc:publisher>
      </cc:Work>
      <cc:License
         rdf:about="http://creativecommons.org/licenses/publicdomain/">
        <cc:permits
           rdf:resource="http://creativecommons.org/ns#Reproduction" />
        <cc:permits
           rdf:resource="http://creativecommons.org/ns#Distribution" />
        <cc:permits
           rdf:resource="http://creativecommons.org/ns#DerivativeWorks" />
      </cc:License>
    </rdf:RDF>
  </metadata>
  <path
     id="path839"
     sodipodi:nodetypes="ccccc"
     style="fill:#ececec;fill-rule:evenodd;stroke:#999999;stroke-width:2.5"
     d="m 20.006,2.25 c -9.799,0 -17.756,7.9566 -17.756,17.757 0,9.799 7.957,17.756 17.756,17.756 9.8,0 17.757,-7.957 17.757,-17.756 0,-9.8 -7.957,-17.757 -17.757,-17.757 z" />
  <path
     id="path1124"
     sodipodi:nodetypes="ccccccccccccccccccccccccccccccccccccccccccc"
     style="fill:#ececec;fill-rule:evenodd;stroke:#999999;stroke-width:1.25;stroke-linejoin:round"
     d="m 19.682,6.8565 c 1.131,0 2.206,0.1734 3.186,0.5073 0.98,0.334 1.843,0.8148 2.597,1.4608 0.754,0.647 1.346,1.428 1.766,2.354 0.431,0.916 0.629,1.954 0.629,3.085 0,2.025 -0.499,3.588 -1.522,4.708 -1.013,1.109 -2.403,1.846 -4.18,2.212 v 0.649 c 0,0.517 -0.119,0.982 -0.345,1.38 -0.216,0.388 -0.535,0.687 -0.934,0.913 -0.388,0.216 -0.823,0.325 -1.319,0.325 -0.495,0 -0.941,-0.109 -1.339,-0.325 -0.388,-0.226 -0.687,-0.525 -0.913,-0.913 -0.216,-0.398 -0.325,-0.863 -0.325,-1.38 v -2.658 c 0,-0.55 0.098,-0.988 0.325,-1.279 0.226,-0.291 0.508,-0.48 0.832,-0.588 0.323,-0.108 0.814,-0.227 1.461,-0.345 1.68,-0.313 2.516,-1.158 2.516,-2.537 0,-0.56 -0.238,-1.06 -0.69,-1.501 -0.442,-0.453 -1.023,-0.67 -1.745,-0.67 -0.668,0 -1.195,0.127 -1.583,0.385 -0.377,0.259 -0.739,0.641 -1.116,1.137 -0.366,0.485 -0.731,0.857 -1.076,1.116 -0.334,0.248 -0.798,0.365 -1.38,0.365 -0.657,0 -1.21,-0.255 -1.684,-0.751 -0.463,-0.506 -0.69,-1.086 -0.69,-1.765 0,-1.185 0.381,-2.231 1.157,-3.125 0.775,-0.894 1.738,-1.576 2.902,-2.0498 1.163,-0.474 2.317,-0.7103 3.47,-0.7103 z m -0.163,20.476 c 0.507,0 0.979,0.136 1.421,0.405 0.442,0.27 0.776,0.624 1.035,1.076 0.269,0.442 0.406,0.924 0.406,1.441 0,0.528 -0.137,1.029 -0.406,1.481 -0.259,0.442 -0.603,0.777 -1.055,1.035 -0.442,0.259 -0.905,0.386 -1.401,0.386 -0.495,0 -0.968,-0.127 -1.42,-0.386 -0.442,-0.258 -0.806,-0.593 -1.076,-1.035 -0.258,-0.452 -0.385,-0.953 -0.385,-1.481 0,-0.517 0.127,-0.999 0.385,-1.441 0.27,-0.452 0.634,-0.806 1.076,-1.076 0.442,-0.269 0.914,-0.405 1.42,-0.405 z" />
  <path
     id="path2320"
     sodipodi:nodetypes="ccccc"
     style="fill:#ececec;fill-rule:evenodd;stroke:#999999;stroke-width:2.5"
     d="m 20.006,2.25 c -9.799,0 -17.756,7.9566 -17.756,17.757 0,9.799 7.957,17.756 17.756,17.756 9.8,0 17.757,-7.957 17.757,-17.756 0,-9.8 -7.957,-17.757 -17.757,-17.757 z" />
  <path
     id="path2322"
     sodipodi:nodetypes="ccccccccccccccccccccccccccccccccccccccccccc"
     style="fill:#ececec;fill-rule:evenodd;stroke:#999999;stroke-width:1.25;stroke-linejoin:round"
     d="m 19.682,6.8565 c 1.131,0 2.206,0.1734 3.186,0.5073 0.98,0.334 1.843,0.8148 2.597,1.4608 0.754,0.647 1.346,1.428 1.766,2.354 0.431,0.916 0.629,1.954 0.629,3.085 0,2.025 -0.499,3.588 -1.522,4.708 -1.013,1.109 -2.403,1.846 -4.18,2.212 v 0.649 c 0,0.517 -0.119,0.982 -0.345,1.38 -0.216,0.388 -0.535,0.687 -0.934,0.913 -0.388,0.216 -0.823,0.325 -1.319,0.325 -0.495,0 -0.941,-0.109 -1.339,-0.325 -0.388,-0.226 -0.687,-0.525 -0.913,-0.913 -0.216,-0.398 -0.325,-0.863 -0.325,-1.38 v -2.658 c 0,-0.55 0.098,-0.988 0.325,-1.279 0.226,-0.291 0.508,-0.48 0.832,-0.588 0.323,-0.108 0.814,-0.227 1.461,-0.345 1.68,-0.313 2.516,-1.158 2.516,-2.537 0,-0.56 -0.238,-1.06 -0.69,-1.501 -0.442,-0.453 -1.023,-0.67 -1.745,-0.67 -0.668,0 -1.195,0.127 -1.583,0.385 -0.377,0.259 -0.739,0.641 -1.116,1.137 -0.366,0.485 -0.731,0.857 -1.076,1.116 -0.334,0.248 -0.798,0.365 -1.38,0.365 -0.657,0 -1.21,-0.255 -1.684,-0.751 -0.463,-0.506 -0.69,-1.086 -0.69,-1.765 0,-1.185 0.381,-2.231 1.157,-3.125 0.775,-0.894 1.738,-1.576 2.902,-2.0498 1.163,-0.474 2.317,-0.7103 3.47,-0.7103 z m -0.163,20.476 c 0.507,0 0.979,0.136 1.421,0.405 0.442,0.27 0.776,0.624 1.035,1.076 0.269,0.442 0.406,0.924 0.406,1.441 0,0.528 -0.137,1.029 -0.406,1.481 -0.259,0.442 -0.603,0.777 -1.055,1.035 -0.442,0.259 -0.905,0.386 -1.401,0.386 -0.495,0 -0.968,-0.127 -1.42,-0.386 -0.442,-0.258 -0.806,-0.593 -1.076,-1.035 -0.258,-0.452 -0.385,-0.953 -0.385,-1.481 0,-0.517 0.127,-0.999 0.385,-1.441 0.27,-0.452 0.634,-0.806 1.076,-1.076 0.442,-0.269 0.914,-0.405 1.42,-0.405 z" />
</svg>
