<svg id="svg2" xmlns="http://www.w3.org/2000/svg" xmlns:xlink="http://www.w3.org/1999/xlink" viewBox="0 0 2000 528.35"><defs><style>.cls-1{fill:none;}.cls-2{fill:#fff;}.cls-3{clip-path:url(#clip-path);}.cls-4{fill:#fc945e;}.cls-5{fill:#4f036d;}.cls-6{fill:#cc2d58;}.cls-7{fill:#ed4e4a;}.cls-8{fill:#fcde95;}</style><clipPath id="clip-path"><rect class="cls-1" x="-561.33" y="-1278.37" width="3081.08" height="3081.08"/></clipPath></defs><title>ZeroMev-Full-White</title><g id="g10"><g id="g14"><path id="path16" class="cls-2" d="M809.19,308.67v28.89H676V314.73l84.63-102.54h-82.9V183.3H806.88v22.82L722,308.67Z"/></g><g id="g18"><g class="cls-3"><g id="g20"><g id="g26"><path id="path28" class="cls-2" d="M877.79,220.71Q865.81,231,863.2,248h87.53q-2.31-16.75-14.16-27.15t-29.46-10.4q-17.33,0-29.32,10.25M984.53,272h-121q3.16,17.06,16.6,27t33.37,10q25.41,0,41.88-16.76l19.35,22.25a65.11,65.11,0,0,1-26.28,18.77q-15.88,6.36-35.82,6.36-25.43,0-44.77-10.11a72.77,72.77,0,0,1-29.9-28.17q-10.54-18-10.54-40.87,0-22.53,10.25-40.59a72.8,72.8,0,0,1,28.45-28.16q18.21-10.11,41-10.11,22.53,0,40.3,10a70.59,70.59,0,0,1,27.73,28q10,18,10,41.74,0,3.75-.57,10.68"/></g><g id="g30"><path id="path32" class="cls-2" d="M1109,181.57V216a45.8,45.8,0,0,0-8.38-.87q-21.09,0-32.93,12.28t-11.84,35.38v74.81h-36.11V183.3h34.37v22.54q15.6-24.27,54.89-24.27"/></g><g id="g34"><path id="path36" class="cls-2" d="M1240.46,295.38q13-13.28,13-34.95t-13-35q-13-13.29-32.93-13.29t-32.79,13.29q-12.85,13.29-12.85,35t12.85,34.95q12.85,13.29,32.79,13.29t32.93-13.29m-75.11,34.09A73.67,73.67,0,0,1,1136,301.3q-10.56-18-10.55-40.87T1136,219.7a74,74,0,0,1,29.31-28q18.78-10.11,42.18-10.11,23.67,0,42.46,10.11a74,74,0,0,1,29.32,28q10.53,17.91,10.54,40.73t-10.54,40.87A73.69,73.69,0,0,1,1250,329.47q-18.78,10.11-42.46,10.11-23.4,0-42.18-10.11"/></g><g id="g38"><path id="path40" class="cls-2" d="M1565.42,198.47q17,16.89,17,50.69v88.39h-36.11V253.79q0-20.22-8.95-30.48t-25.71-10.25q-18.2,0-29.18,12t-11,34.22v78.28h-36.11V253.79q0-20.22-9-30.48t-25.71-10.25q-18.49,0-29.32,11.84t-10.83,34.37v78.28h-36.11V183.3h34.37V203a56.19,56.19,0,0,1,21.67-15.89,73.49,73.49,0,0,1,28.88-5.49q17.34,0,30.77,6.5a50,50,0,0,1,21.23,19.21A64.29,64.29,0,0,1,1486,188.36a79.82,79.82,0,0,1,33.22-6.79q29.17,0,46.22,16.9"/></g><g id="g42"><path id="path44" class="cls-2" d="M1667.81,220.71q-12,10.26-14.59,27.3h87.53q-2.31-16.75-14.16-27.15t-29.46-10.4q-17.33,0-29.32,10.25M1774.55,272h-121q3.18,17.06,16.61,27t33.37,10q25.41,0,41.88-16.76l19.35,22.25a65.11,65.11,0,0,1-26.28,18.77q-15.9,6.36-35.82,6.36-25.42,0-44.78-10.11A72.8,72.8,0,0,1,1628,301.3q-10.54-18-10.54-40.87,0-22.53,10.25-40.59a72.73,72.73,0,0,1,28.45-28.16q18.21-10.11,41-10.11,22.53,0,40.3,10a70.59,70.59,0,0,1,27.73,28q10,18,10,41.74,0,3.75-.57,10.68"/></g><g id="g46"><path id="path48" class="cls-2" d="M1951.33,183.3l-66.15,154.25h-37.26L1781.77,183.3h37.55l48,114.39,49.39-114.39Z"/></g><g id="g50"><path id="path52" class="cls-4" d="M64.91,197.78A28.91,28.91,0,1,1,36,168.87a28.91,28.91,0,0,1,28.91,28.91"/></g><g id="g54"><path id="path56" class="cls-5" d="M335.57,21.71c-6.56,0-13,.24-19.42.77-6.84.54-13.64,1.36-20.34,2.48-7.23,1.16-14.37,2.67-21.36,4.47h-.05q-7.27,1.89-14.41,4.22a241,241,0,0,0-46,20.44,68.44,68.44,0,0,1,16.07,6.5,50.41,50.41,0,0,1,4.81,2.91,71,71,0,0,1,16.6,15,194.64,194.64,0,0,1,20.78-8C278,68.6,284,67,289.94,65.64c1.65-.39,3.35-.73,5-1.07a201.52,201.52,0,0,1,21.16-3.11c3-.29,6-.48,9-.63,3.45-.19,6.94-.29,10.44-.29A206.36,206.36,0,0,1,541.74,266.71c0,113.69-92.48,206.17-206.17,206.17A206,206,0,0,1,129.45,266.71c0-3.49.1-6.94.29-10.39.1-3.06.34-6.07.63-9.08a201.52,201.52,0,0,1,3.11-21.16c.43-2.28,1-4.56,1.5-6.85,1.27-5.39,2.72-10.68,4.42-15.87a190.39,190.39,0,0,1,8.79-22.43,65.7,65.7,0,0,1-8.74-8.59,63.14,63.14,0,0,1-6.51-8.74,56.72,56.72,0,0,1-3.44-6,72.57,72.57,0,0,1-5.44-14.32A242.31,242.31,0,0,0,103.23,189c-1.84,5.44-3.44,10.92-4.9,16.5v.05c-1.79,7-3.3,14.18-4.46,21.41-1.12,6.65-2,13.45-2.48,20.29-.54,6.41-.78,12.87-.78,19.42,0,135.1,109.91,245,245,245s245-109.91,245-245-109.9-245-245-245"/></g><g id="g58"><path id="path60" class="cls-6" d="M466.78,107.78a207.87,207.87,0,0,0-150.63-85.3c-6.84.54-13.64,1.36-20.34,2.48-7.23,1.16-14.37,2.67-21.36,4.46h-.05q-7.27,1.91-14.41,4.23a92.52,92.52,0,0,0-9.76-6.26,205.71,205.71,0,0,0-59,24.17c1.16-.05,2.33-.1,3.54-.1A69.75,69.75,0,0,1,214,54.09a68.44,68.44,0,0,1,16.07,6.5,48.43,48.43,0,0,1,4.81,2.91,70.07,70.07,0,0,1,8.3,6.31A157.24,157.24,0,0,1,259,65.2a165.27,165.27,0,0,1,20.3-3.59c2.52-.29,5-.49,7.57-.68,3.83-.24,7.67-.39,11.55-.39a163.42,163.42,0,0,1,17.67.92c3.79.39,7.53.93,11.26,1.56a169.41,169.41,0,0,1,140.1,166.55c0,93.21-75.82,169-169,169A169.34,169.34,0,0,1,132,258.6q-1-5.6-1.6-11.36a163.29,163.29,0,0,1-.92-17.67c0-4.61.19-9.17.53-13.69.15-1.79.34-3.64.54-5.43a162.91,162.91,0,0,1,3.59-20.29,168.1,168.1,0,0,1,5.34-17.82,63.14,63.14,0,0,1-6.51-8.74,56.72,56.72,0,0,1-3.44-6,72.57,72.57,0,0,1-5.44-14.32,71.41,71.41,0,0,1-2.43-18.64c0-1.46.05-2.91.15-4.37a205,205,0,0,0-24.91,58.64A116,116,0,0,0,103.23,189c-1.84,5.44-3.44,10.92-4.9,16.5v.05c-1.79,7-3.3,14.18-4.46,21.41-1.12,6.65-2,13.45-2.48,20.29a208,208,0,0,0,207,190.15c114.62,0,207.87-93.25,207.87-207.87a206.63,206.63,0,0,0-39.52-121.79"/></g><g id="g62"><path id="path64" class="cls-7" d="M262.61,327A133.45,133.45,0,0,1,133.48,226.08a80,80,0,0,1-1.94-9.13c-.44-2.13-.78-4.32-1-6.5a126.16,126.16,0,0,1-1.07-16.7,128.66,128.66,0,0,1,1.26-18,112.93,112.93,0,0,1,2.23-12.14,56.72,56.72,0,0,1-3.44-6,72.57,72.57,0,0,1-5.44-14.32,71.41,71.41,0,0,1-2.43-18.64c0-1.45.05-2.91.15-4.37a73.21,73.21,0,0,1,69.47-68.69c1.16-.05,2.33-.1,3.54-.1A69.75,69.75,0,0,1,214,54.09a68,68,0,0,1,16.07,6.5,50.41,50.41,0,0,1,4.81,2.91,94.69,94.69,0,0,1,9.71-1.7,130.2,130.2,0,0,1,18-1.26,126.16,126.16,0,0,1,16.7,1.07c3.05.34,6,.83,9,1.46,2.23.38,4.46.92,6.65,1.5A133.46,133.46,0,0,1,395.81,193.75c0,73.45-59.76,133.2-133.2,133.2M406.78,100a174,174,0,0,0-30.73-35.44A171.3,171.3,0,0,0,295.81,25c-7.23,1.16-14.37,2.67-21.36,4.46h-.05q-7.27,1.91-14.41,4.23A116.67,116.67,0,0,0,241.73,23C164.64,32.34,103.09,93,92.31,169.62a79.7,79.7,0,0,0,4.57,9.27A111.47,111.47,0,0,0,103.24,189c-1.85,5.44-3.45,10.92-4.91,16.51v0c-1.79,7-3.3,14.18-4.47,21.41A172.21,172.21,0,0,0,262.61,365.79c94.85,0,172-77.19,172-172A171,171,0,0,0,406.78,100"/></g><g id="g66"><path id="path68" class="cls-4" d="M228.92,259.53a99.93,99.93,0,0,1-89.52-56.17,93.68,93.68,0,0,1-5.29-13.2,95.71,95.71,0,0,1-3.4-14.42,98.74,98.74,0,0,1-1.26-15.68c0-.83,0-1.65.05-2.48a73.25,73.25,0,0,1-7.87-33c0-1.45.05-2.91.15-4.37a73.21,73.21,0,0,1,69.47-68.69c1.16-.05,2.33-.1,3.54-.1A69.75,69.75,0,0,1,214,54.09a68,68,0,0,1,16.07,6.5A90.51,90.51,0,0,1,244.6,61.8,96.81,96.81,0,0,1,259,65.2a103.78,103.78,0,0,1,13.26,5.29,99.5,99.5,0,0,1-43.35,189M350.13,93.46A136.81,136.81,0,0,0,327.36,63a28.74,28.74,0,0,0-2.23-2.19,138,138,0,0,0-50.68-31.41h-.05q-7.27,1.91-14.42,4.23a91.37,91.37,0,0,0-9.75-6.26c-2.77-1.61-5.86-1.7-8.78-3,1-.1-7.78,1.7-6.81,1.6-1.5-.2,3.34-2.49,1.79-2.59-3.64-.34-3.78-1.68-7.51-1.68-76.27,0-138.31,62.09-138.31,138.35q0,3,.15,6c.09,3.25-.54-9.18-.15-6,.24-2,1.41,11.6,1.7,9.56a81.33,81.33,0,0,0,4.57,9.27A111.47,111.47,0,0,0,103.24,189c-1.85,5.44-3.45,10.92-4.91,16.51v0a136.89,136.89,0,0,0,31.41,50.73c.73.78,1.46,1.56,2.23,2.28a137.68,137.68,0,0,0,96.95,39.76c76.26,0,138.3-62,138.3-138.3a137.68,137.68,0,0,0-17.09-66.6"/></g><g id="g70"><path id="path72" class="cls-8" d="M302.12,92.78a99.57,99.57,0,0,0-29.85-22.29,199,199,0,0,0-20.78,8,73.08,73.08,0,0,1-103.3,102.43,191.07,191.07,0,0,0-8.79,22.43A98.09,98.09,0,0,0,159,230.69a109.43,109.43,0,0,0,35.78,5.92,112.12,112.12,0,0,0,112-112,109.48,109.48,0,0,0-4.66-31.84m-107.33,105a72.64,72.64,0,0,1-46.6-16.85,65.7,65.7,0,0,1-8.74-8.59,63.14,63.14,0,0,1-6.51-8.74,56.72,56.72,0,0,1-3.44-6,72.57,72.57,0,0,1-5.44-14.32,71.41,71.41,0,0,1-2.43-18.64c0-1.45.05-2.91.15-4.37a73.21,73.21,0,0,1,69.46-68.69c1.17-.05,2.34-.1,3.55-.1A69.75,69.75,0,0,1,214,54.09a68,68,0,0,1,16.07,6.5,48.43,48.43,0,0,1,4.81,2.91,70.07,70.07,0,0,1,8.3,6.31,70.89,70.89,0,0,1,8.3,8.69,73.08,73.08,0,0,1-56.7,119.28m107.33-105a109.81,109.81,0,0,0-12.18-27.14c-.54-.88-1.07-1.75-1.65-2.57s-.93-1.46-1.41-2.14A113.11,113.11,0,0,0,260,33.65,116.67,116.67,0,0,0,241.73,23c-.58-.29-1.16-.54-1.74-.78a110.85,110.85,0,0,0-45.2-9.56,112.12,112.12,0,0,0-112,112,110.85,110.85,0,0,0,8,41.41,34.38,34.38,0,0,0,1.55,3.59,81.33,81.33,0,0,0,4.57,9.27,111.51,111.51,0,0,0,33.1,37c.49.38,1,.72,1.56,1.06,1.11.83,2.28,1.56,3.44,2.28a112.29,112.29,0,0,0,59.81,17.38,112.12,112.12,0,0,0,112-112,109.48,109.48,0,0,0-4.66-31.84m0,0a99.57,99.57,0,0,0-29.85-22.29,199,199,0,0,0-20.78,8,73.08,73.08,0,0,1-103.3,102.43,191.07,191.07,0,0,0-8.79,22.43A98.09,98.09,0,0,0,159,230.69a109.43,109.43,0,0,0,35.78,5.92,112.12,112.12,0,0,0,112-112,109.48,109.48,0,0,0-4.66-31.84"/></g></g></g></g></g></svg>