<?xml version="1.0" encoding="UTF-8" standalone="no"?>
<svg
   id="svg2"
   viewBox="0 0 573.52002 499.01015"
   version="1.1"
   sodipodi:docname="zmgray.svg"
   inkscape:version="1.1.2 (b8e25be833, 2022-02-05)"
   width="573.52002"
   height="499.01013"
   xmlns:inkscape="http://www.inkscape.org/namespaces/inkscape"
   xmlns:sodipodi="http://sodipodi.sourceforge.net/DTD/sodipodi-0.dtd"
   xmlns="http://www.w3.org/2000/svg"
   xmlns:svg="http://www.w3.org/2000/svg"
   xmlns:rdf="http://www.w3.org/1999/02/22-rdf-syntax-ns#"
   xmlns:cc="http://creativecommons.org/ns#"
   xmlns:dc="http://purl.org/dc/elements/1.1/">
  <sodipodi:namedview
     id="namedview44"
     pagecolor="#ffffff"
     bordercolor="#666666"
     borderopacity="1.0"
     inkscape:pageshadow="2"
     inkscape:pageopacity="0.0"
     inkscape:pagecheckerboard="0"
     showgrid="false"
     inkscape:zoom="0.529"
     inkscape:cx="1036.862"
     inkscape:cy="251.41777"
     inkscape:window-width="1862"
     inkscape:window-height="985"
     inkscape:window-x="-8"
     inkscape:window-y="-8"
     inkscape:window-maximized="1"
     inkscape:current-layer="g10"
     fit-margin-top="0"
     fit-margin-left="0"
     fit-margin-right="0"
     fit-margin-bottom="0" />
  <defs
     id="defs7">
    <style
       id="style2"><![CDATA[
.cls-1 {
  fill:none;
}
.cls-2 {
  fill:#fff;
}
.cls-3 {
  clip-path:url(#clip-path);
}
.cls-4 {
  fill:#adadad;
}
.cls-5 {
  fill:#262626;
}
.cls-6 {
  fill:#616161;
}
.cls-7 {
  fill:#7d7d7d;
}
.cls-8 {
  fill:#dfdfdf;
}
]]></style>
    <clipPath
       id="clip-path">
      <rect
         class="cls-1"
         x="-561.33002"
         y="-1278.37"
         width="3081.0801"
         height="3081.0801"
         id="rect4" />
    </clipPath>
  </defs>
  <title
     id="title9">zeromev gray</title>
  <g
     id="g10"
     transform="translate(-7.09,-12.659876)">
    <g
       id="g50">
      <path
         id="path52"
         class="cls-4"
         d="M 64.91,197.78 A 28.91,28.91 0 1 1 36,168.87 28.91,28.91 0 0 1 64.91,197.78" />
    </g>
    <g
       id="g54">
      <path
         id="path56"
         class="cls-5"
         d="m 335.57,21.71 c -6.56,0 -13,0.24 -19.42,0.77 -6.84,0.54 -13.64,1.36 -20.34,2.48 -7.23,1.16 -14.37,2.67 -21.36,4.47 h -0.05 q -7.27,1.89 -14.41,4.22 a 241,241 0 0 0 -46,20.44 68.44,68.44 0 0 1 16.07,6.5 50.41,50.41 0 0 1 4.81,2.91 71,71 0 0 1 16.6,15 194.64,194.64 0 0 1 20.78,-8 C 278,68.6 284,67 289.94,65.64 c 1.65,-0.39 3.35,-0.73 5,-1.07 a 201.52,201.52 0 0 1 21.16,-3.11 c 3,-0.29 6,-0.48 9,-0.63 3.45,-0.19 6.94,-0.29 10.44,-0.29 a 206.36,206.36 0 0 1 206.2,206.17 c 0,113.69 -92.48,206.17 -206.17,206.17 A 206,206 0 0 1 129.45,266.71 c 0,-3.49 0.1,-6.94 0.29,-10.39 0.1,-3.06 0.34,-6.07 0.63,-9.08 a 201.52,201.52 0 0 1 3.11,-21.16 c 0.43,-2.28 1,-4.56 1.5,-6.85 1.27,-5.39 2.72,-10.68 4.42,-15.87 a 190.39,190.39 0 0 1 8.79,-22.43 65.7,65.7 0 0 1 -8.74,-8.59 63.14,63.14 0 0 1 -6.51,-8.74 56.72,56.72 0 0 1 -3.44,-6 72.57,72.57 0 0 1 -5.44,-14.32 242.31,242.31 0 0 0 -20.83,45.72 c -1.84,5.44 -3.44,10.92 -4.9,16.5 v 0.05 c -1.79,7 -3.3,14.18 -4.46,21.41 -1.12,6.65 -2,13.45 -2.48,20.29 -0.54,6.41 -0.78,12.87 -0.78,19.42 0,135.1 109.91,245 245,245 135.09,0 245,-109.91 245,-245 0,-135.09 -109.9,-245 -245,-245" />
    </g>
    <g
       id="g58">
      <path
         id="path60"
         class="cls-6"
         d="M 466.78,107.78 A 207.87,207.87 0 0 0 316.15,22.48 c -6.84,0.54 -13.64,1.36 -20.34,2.48 -7.23,1.16 -14.37,2.67 -21.36,4.46 h -0.05 q -7.27,1.91 -14.41,4.23 a 92.52,92.52 0 0 0 -9.76,-6.26 205.71,205.71 0 0 0 -59,24.17 c 1.16,-0.05 2.33,-0.1 3.54,-0.1 a 69.75,69.75 0 0 1 19.23,2.63 68.44,68.44 0 0 1 16.07,6.5 48.43,48.43 0 0 1 4.81,2.91 70.07,70.07 0 0 1 8.3,6.31 157.24,157.24 0 0 1 15.82,-4.61 165.27,165.27 0 0 1 20.3,-3.59 c 2.52,-0.29 5,-0.49 7.57,-0.68 3.83,-0.24 7.67,-0.39 11.55,-0.39 a 163.42,163.42 0 0 1 17.67,0.92 c 3.79,0.39 7.53,0.93 11.26,1.56 a 169.41,169.41 0 0 1 140.1,166.55 c 0,93.21 -75.82,169 -169,169 A 169.34,169.34 0 0 1 132,258.6 q -1,-5.6 -1.6,-11.36 a 163.29,163.29 0 0 1 -0.92,-17.67 c 0,-4.61 0.19,-9.17 0.53,-13.69 0.15,-1.79 0.34,-3.64 0.54,-5.43 a 162.91,162.91 0 0 1 3.59,-20.29 168.1,168.1 0 0 1 5.34,-17.82 63.14,63.14 0 0 1 -6.51,-8.74 56.72,56.72 0 0 1 -3.44,-6 72.57,72.57 0 0 1 -5.44,-14.32 71.41,71.41 0 0 1 -2.43,-18.64 c 0,-1.46 0.05,-2.91 0.15,-4.37 A 205,205 0 0 0 96.9,178.91 116,116 0 0 0 103.23,189 c -1.84,5.44 -3.44,10.92 -4.9,16.5 v 0.05 c -1.79,7 -3.3,14.18 -4.46,21.41 -1.12,6.65 -2,13.45 -2.48,20.29 a 208,208 0 0 0 207,190.15 c 114.62,0 207.87,-93.25 207.87,-207.87 A 206.63,206.63 0 0 0 466.74,107.74" />
    </g>
    <g
       id="g62">
      <path
         id="path64"
         class="cls-7"
         d="m 262.61,327 a 133.45,133.45 0 0 1 -129.13,-100.92 80,80 0 0 1 -1.94,-9.13 c -0.44,-2.13 -0.78,-4.32 -1,-6.5 a 126.16,126.16 0 0 1 -1.07,-16.7 128.66,128.66 0 0 1 1.26,-18 112.93,112.93 0 0 1 2.23,-12.14 56.72,56.72 0 0 1 -3.44,-6 72.57,72.57 0 0 1 -5.44,-14.32 71.41,71.41 0 0 1 -2.43,-18.64 c 0,-1.45 0.05,-2.91 0.15,-4.37 a 73.21,73.21 0 0 1 69.47,-68.69 c 1.16,-0.05 2.33,-0.1 3.54,-0.1 a 69.75,69.75 0 0 1 19.19,2.6 68,68 0 0 1 16.07,6.5 50.41,50.41 0 0 1 4.81,2.91 94.69,94.69 0 0 1 9.71,-1.7 130.2,130.2 0 0 1 18,-1.26 126.16,126.16 0 0 1 16.7,1.07 c 3.05,0.34 6,0.83 9,1.46 2.23,0.38 4.46,0.92 6.65,1.5 a 133.46,133.46 0 0 1 100.87,129.18 c 0,73.45 -59.76,133.2 -133.2,133.2 M 406.78,100 A 174,174 0 0 0 376.05,64.56 171.3,171.3 0 0 0 295.81,25 c -7.23,1.16 -14.37,2.67 -21.36,4.46 h -0.05 q -7.27,1.91 -14.41,4.23 A 116.67,116.67 0 0 0 241.73,23 C 164.64,32.34 103.09,93 92.31,169.62 a 79.7,79.7 0 0 0 4.57,9.27 111.47,111.47 0 0 0 6.36,10.11 c -1.85,5.44 -3.45,10.92 -4.91,16.51 v 0 c -1.79,7 -3.3,14.18 -4.47,21.41 a 172.21,172.21 0 0 0 168.75,138.87 c 94.85,0 172,-77.19 172,-172 A 171,171 0 0 0 406.78,100" />
    </g>
    <g
       id="g66">
      <path
         id="path68"
         class="cls-4"
         d="m 228.92,259.53 a 99.93,99.93 0 0 1 -89.52,-56.17 93.68,93.68 0 0 1 -5.29,-13.2 95.71,95.71 0 0 1 -3.4,-14.42 98.74,98.74 0 0 1 -1.26,-15.68 c 0,-0.83 0,-1.65 0.05,-2.48 a 73.25,73.25 0 0 1 -7.87,-33 c 0,-1.45 0.05,-2.91 0.15,-4.37 a 73.21,73.21 0 0 1 69.47,-68.69 c 1.16,-0.05 2.33,-0.1 3.54,-0.1 a 69.75,69.75 0 0 1 19.21,2.67 68,68 0 0 1 16.07,6.5 90.51,90.51 0 0 1 14.53,1.21 96.81,96.81 0 0 1 14.4,3.4 103.78,103.78 0 0 1 13.26,5.29 99.5,99.5 0 0 1 -43.35,189 M 350.13,93.46 A 136.81,136.81 0 0 0 327.36,63 28.74,28.74 0 0 0 325.13,60.81 138,138 0 0 0 274.45,29.4 h -0.05 q -7.27,1.91 -14.42,4.23 a 91.37,91.37 0 0 0 -9.75,-6.26 c -2.77,-1.61 -5.86,-1.7 -8.78,-3 1,-0.1 -7.78,1.7 -6.81,1.6 -1.5,-0.2 3.34,-2.49 1.79,-2.59 -3.64,-0.34 -3.78,-1.68 -7.51,-1.68 -76.27,0 -138.31,62.09 -138.31,138.35 q 0,3 0.15,6 c 0.09,3.25 -0.54,-9.18 -0.15,-6 0.24,-2 1.41,11.6 1.7,9.56 a 81.33,81.33 0 0 0 4.57,9.27 111.47,111.47 0 0 0 6.36,10.12 c -1.85,5.44 -3.45,10.92 -4.91,16.51 v 0 a 136.89,136.89 0 0 0 31.41,50.73 c 0.73,0.78 1.46,1.56 2.23,2.28 a 137.68,137.68 0 0 0 96.95,39.76 c 76.26,0 138.3,-62 138.3,-138.3 a 137.68,137.68 0 0 0 -17.09,-66.6" />
    </g>
    <g
       id="g70">
      <path
         id="path72"
         class="cls-8"
         d="m 302.12,92.78 a 99.57,99.57 0 0 0 -29.85,-22.29 199,199 0 0 0 -20.78,8 73.08,73.08 0 0 1 -103.3,102.43 191.07,191.07 0 0 0 -8.79,22.43 98.09,98.09 0 0 0 19.6,27.34 109.43,109.43 0 0 0 35.78,5.92 112.12,112.12 0 0 0 112,-112 109.48,109.48 0 0 0 -4.66,-31.84 m -107.33,105 a 72.64,72.64 0 0 1 -46.6,-16.85 65.7,65.7 0 0 1 -8.74,-8.59 63.14,63.14 0 0 1 -6.51,-8.74 56.72,56.72 0 0 1 -3.44,-6 72.57,72.57 0 0 1 -5.44,-14.32 71.41,71.41 0 0 1 -2.43,-18.64 c 0,-1.45 0.05,-2.91 0.15,-4.37 a 73.21,73.21 0 0 1 69.46,-68.69 c 1.17,-0.05 2.34,-0.1 3.55,-0.1 a 69.75,69.75 0 0 1 19.21,2.62 68,68 0 0 1 16.07,6.5 48.43,48.43 0 0 1 4.81,2.91 70.07,70.07 0 0 1 8.3,6.31 70.89,70.89 0 0 1 8.3,8.69 73.08,73.08 0 0 1 -56.7,119.28 m 107.33,-105 A 109.81,109.81 0 0 0 289.93,65.64 c -0.54,-0.88 -1.07,-1.75 -1.65,-2.57 -0.58,-0.82 -0.93,-1.46 -1.41,-2.14 A 113.11,113.11 0 0 0 260,33.65 116.67,116.67 0 0 0 241.73,23 c -0.58,-0.29 -1.16,-0.54 -1.74,-0.78 a 110.85,110.85 0 0 0 -45.2,-9.56 112.12,112.12 0 0 0 -112,112 110.85,110.85 0 0 0 8,41.41 34.38,34.38 0 0 0 1.55,3.59 81.33,81.33 0 0 0 4.57,9.27 111.51,111.51 0 0 0 33.1,37 c 0.49,0.38 1,0.72 1.56,1.06 1.11,0.83 2.28,1.56 3.44,2.28 a 112.29,112.29 0 0 0 59.81,17.38 112.12,112.12 0 0 0 112,-112 109.48,109.48 0 0 0 -4.66,-31.84 m 0,0 a 99.57,99.57 0 0 0 -29.85,-22.29 199,199 0 0 0 -20.78,8 73.08,73.08 0 0 1 -103.3,102.43 191.07,191.07 0 0 0 -8.79,22.43 98.09,98.09 0 0 0 19.56,27.31 109.43,109.43 0 0 0 35.78,5.92 112.12,112.12 0 0 0 112,-112 109.48,109.48 0 0 0 -4.66,-31.84" />
    </g>
  </g>
  <metadata
     id="metadata861">
    <rdf:RDF>
      <cc:Work
         rdf:about="">
        <dc:title>zeromev gray</dc:title>
      </cc:Work>
    </rdf:RDF>
  </metadata>
</svg>
