<?xml version="1.0" encoding="UTF-8" standalone="no"?>
<svg
   id="svg2"
   viewBox="0 0 1275.33 158.05614"
   version="1.1"
   sodipodi:docname="zmtext.svg"
   inkscape:version="1.1.2 (b8e25be833, 2022-02-05)"
   width="1275.33"
   height="158.05614"
   xmlns:inkscape="http://www.inkscape.org/namespaces/inkscape"
   xmlns:sodipodi="http://sodipodi.sourceforge.net/DTD/sodipodi-0.dtd"
   xmlns="http://www.w3.org/2000/svg"
   xmlns:svg="http://www.w3.org/2000/svg"
   xmlns:rdf="http://www.w3.org/1999/02/22-rdf-syntax-ns#"
   xmlns:cc="http://creativecommons.org/ns#"
   xmlns:dc="http://purl.org/dc/elements/1.1/">
  <sodipodi:namedview
     id="namedview44"
     pagecolor="#ffffff"
     bordercolor="#666666"
     borderopacity="1.0"
     inkscape:pageshadow="2"
     inkscape:pageopacity="0.0"
     inkscape:pagecheckerboard="0"
     showgrid="false"
     inkscape:zoom="0.529"
     inkscape:cx="182.41966"
     inkscape:cy="83.175803"
     inkscape:window-width="1862"
     inkscape:window-height="985"
     inkscape:window-x="-8"
     inkscape:window-y="-8"
     inkscape:window-maximized="1"
     inkscape:current-layer="g10"
     fit-margin-top="0"
     fit-margin-left="0"
     fit-margin-right="0"
     fit-margin-bottom="0" />
  <defs
     id="defs7">
    <style
       id="style2">.cls-1{fill:none;}.cls-2{fill:#fff;}.cls-3{clip-path:url(#clip-path);}.cls-4{fill:#fc945e;}.cls-5{fill:#4f036d;}.cls-6{fill:#cc2d58;}.cls-7{fill:#ed4e4a;}.cls-8{fill:#fcde95;}</style>
    <clipPath
       id="clip-path">
      <rect
         class="cls-1"
         x="-561.33002"
         y="-1278.37"
         width="3081.0801"
         height="3081.0801"
         id="rect4" />
    </clipPath>
  </defs>
  <title
     id="title9">ZeroMev-Full-White</title>
  <g
     id="g10"
     transform="translate(-676,-181.56386)">
    <g
       id="g14"
       style="fill:#000000">
      <path
         id="path16"
         class="cls-2"
         d="m 809.19,308.67 v 28.89 H 676 v -22.83 l 84.63,-102.54 h -82.9 V 183.3 h 129.15 v 22.82 L 722,308.67 Z"
         style="fill:#000000" />
    </g>
    <g
       id="g26"
       style="fill:#000000">
      <path
         id="path28"
         class="cls-2"
         d="M 877.79,220.71 Q 865.81,231 863.2,248 h 87.53 q -2.31,-16.75 -14.16,-27.15 -11.85,-10.4 -29.46,-10.4 -17.33,0 -29.32,10.25 M 984.53,272 h -121 q 3.16,17.06 16.6,27 13.44,9.94 33.37,10 25.41,0 41.88,-16.76 l 19.35,22.25 a 65.11,65.11 0 0 1 -26.28,18.77 q -15.88,6.36 -35.82,6.36 -25.43,0 -44.77,-10.11 a 72.77,72.77 0 0 1 -29.9,-28.17 q -10.54,-18 -10.54,-40.87 0,-22.53 10.25,-40.59 a 72.8,72.8 0 0 1 28.45,-28.16 q 18.21,-10.11 41,-10.11 22.53,0 40.3,10 a 70.59,70.59 0 0 1 27.73,28 q 10,18 10,41.74 0,3.75 -0.57,10.68"
         style="fill:#000000" />
    </g>
    <g
       id="g30"
       style="fill:#000000">
      <path
         id="path32"
         class="cls-2"
         d="M 1109,181.57 V 216 a 45.8,45.8 0 0 0 -8.38,-0.87 q -21.09,0 -32.93,12.28 -11.84,12.28 -11.84,35.38 v 74.81 h -36.11 V 183.3 h 34.37 v 22.54 q 15.6,-24.27 54.89,-24.27"
         style="fill:#000000" />
    </g>
    <g
       id="g34"
       style="fill:#000000">
      <path
         id="path36"
         class="cls-2"
         d="m 1240.46,295.38 q 13,-13.28 13,-34.95 0,-21.67 -13,-35 -13,-13.29 -32.93,-13.29 -19.93,0 -32.79,13.29 -12.85,13.29 -12.85,35 0,21.71 12.85,34.95 12.85,13.29 32.79,13.29 19.94,0 32.93,-13.29 m -75.11,34.09 A 73.67,73.67 0 0 1 1136,301.3 q -10.56,-18 -10.55,-40.87 0.01,-22.87 10.55,-40.73 a 74,74 0 0 1 29.31,-28 q 18.78,-10.11 42.18,-10.11 23.67,0 42.46,10.11 a 74,74 0 0 1 29.32,28 q 10.53,17.91 10.54,40.73 0.01,22.82 -10.54,40.87 A 73.69,73.69 0 0 1 1250,329.47 q -18.78,10.11 -42.46,10.11 -23.4,0 -42.18,-10.11"
         style="fill:#000000" />
    </g>
    <g
       id="g38"
       style="fill:#000000">
      <path
         id="path40"
         class="cls-2"
         d="m 1565.42,198.47 q 17,16.89 17,50.69 v 88.39 h -36.11 v -83.76 q 0,-20.22 -8.95,-30.48 -8.95,-10.26 -25.71,-10.25 -18.2,0 -29.18,12 -10.98,12 -11,34.22 v 78.28 h -36.11 v -83.77 q 0,-20.22 -9,-30.48 -9,-10.26 -25.71,-10.25 -18.49,0 -29.32,11.84 -10.83,11.84 -10.83,34.37 v 78.28 h -36.11 V 183.3 h 34.37 V 203 a 56.19,56.19 0 0 1 21.67,-15.89 73.49,73.49 0 0 1 28.88,-5.49 q 17.34,0 30.77,6.5 a 50,50 0 0 1 21.23,19.21 64.29,64.29 0 0 1 24.69,-18.97 79.82,79.82 0 0 1 33.22,-6.79 q 29.17,0 46.22,16.9"
         style="fill:#000000" />
    </g>
    <g
       id="g42"
       style="fill:#000000">
      <path
         id="path44"
         class="cls-2"
         d="m 1667.81,220.71 q -12,10.26 -14.59,27.3 h 87.53 q -2.31,-16.75 -14.16,-27.15 -11.85,-10.4 -29.46,-10.4 -17.33,0 -29.32,10.25 M 1774.55,272 h -121 q 3.18,17.06 16.61,27 13.43,9.94 33.37,10 25.41,0 41.88,-16.76 l 19.35,22.25 a 65.11,65.11 0 0 1 -26.28,18.77 q -15.9,6.36 -35.82,6.36 -25.42,0 -44.78,-10.11 A 72.8,72.8 0 0 1 1628,301.3 q -10.54,-18 -10.54,-40.87 0,-22.53 10.25,-40.59 a 72.73,72.73 0 0 1 28.45,-28.16 q 18.21,-10.11 41,-10.11 22.53,0 40.3,10 a 70.59,70.59 0 0 1 27.73,28 q 10,18 10,41.74 0,3.75 -0.57,10.68"
         style="fill:#000000" />
    </g>
    <g
       id="g46"
       style="fill:#000000">
      <path
         id="path48"
         class="cls-2"
         d="m 1951.33,183.3 -66.15,154.25 h -37.26 L 1781.77,183.3 h 37.55 l 48,114.39 49.39,-114.39 z"
         style="fill:#000000" />
    </g>
    <g
       id="g1026"
       style="fill:#000000">
      <path
         id="path1024"
         class="cls-2"
         d="m 809.19,308.67 v 28.89 H 676 v -22.83 l 84.63,-102.54 h -82.9 V 183.3 h 129.15 v 22.82 L 722,308.67 Z"
         style="fill:#000000" />
    </g>
    <g
       id="g1030"
       style="fill:#000000">
      <path
         id="path1028"
         class="cls-2"
         d="M 877.79,220.71 Q 865.81,231 863.2,248 h 87.53 q -2.31,-16.75 -14.16,-27.15 -11.85,-10.4 -29.46,-10.4 -17.33,0 -29.32,10.25 M 984.53,272 h -121 q 3.16,17.06 16.6,27 13.44,9.94 33.37,10 25.41,0 41.88,-16.76 l 19.35,22.25 a 65.11,65.11 0 0 1 -26.28,18.77 q -15.88,6.36 -35.82,6.36 -25.43,0 -44.77,-10.11 a 72.77,72.77 0 0 1 -29.9,-28.17 q -10.54,-18 -10.54,-40.87 0,-22.53 10.25,-40.59 a 72.8,72.8 0 0 1 28.45,-28.16 q 18.21,-10.11 41,-10.11 22.53,0 40.3,10 a 70.59,70.59 0 0 1 27.73,28 q 10,18 10,41.74 0,3.75 -0.57,10.68"
         style="fill:#000000" />
    </g>
    <g
       id="g1034"
       style="fill:#000000">
      <path
         id="path1032"
         class="cls-2"
         d="M 1109,181.57 V 216 a 45.8,45.8 0 0 0 -8.38,-0.87 q -21.09,0 -32.93,12.28 -11.84,12.28 -11.84,35.38 v 74.81 h -36.11 V 183.3 h 34.37 v 22.54 q 15.6,-24.27 54.89,-24.27"
         style="fill:#000000" />
    </g>
    <g
       id="g1038"
       style="fill:#000000">
      <path
         id="path1036"
         class="cls-2"
         d="m 1240.46,295.38 q 13,-13.28 13,-34.95 0,-21.67 -13,-35 -13,-13.29 -32.93,-13.29 -19.93,0 -32.79,13.29 -12.85,13.29 -12.85,35 0,21.71 12.85,34.95 12.85,13.29 32.79,13.29 19.94,0 32.93,-13.29 m -75.11,34.09 A 73.67,73.67 0 0 1 1136,301.3 q -10.56,-18 -10.55,-40.87 0.01,-22.87 10.55,-40.73 a 74,74 0 0 1 29.31,-28 q 18.78,-10.11 42.18,-10.11 23.67,0 42.46,10.11 a 74,74 0 0 1 29.32,28 q 10.53,17.91 10.54,40.73 0.01,22.82 -10.54,40.87 A 73.69,73.69 0 0 1 1250,329.47 q -18.78,10.11 -42.46,10.11 -23.4,0 -42.18,-10.11"
         style="fill:#000000" />
    </g>
    <g
       id="g1042"
       style="fill:#000000">
      <path
         id="path1040"
         class="cls-2"
         d="m 1565.42,198.47 q 17,16.89 17,50.69 v 88.39 h -36.11 v -83.76 q 0,-20.22 -8.95,-30.48 -8.95,-10.26 -25.71,-10.25 -18.2,0 -29.18,12 -10.98,12 -11,34.22 v 78.28 h -36.11 v -83.77 q 0,-20.22 -9,-30.48 -9,-10.26 -25.71,-10.25 -18.49,0 -29.32,11.84 -10.83,11.84 -10.83,34.37 v 78.28 h -36.11 V 183.3 h 34.37 V 203 a 56.19,56.19 0 0 1 21.67,-15.89 73.49,73.49 0 0 1 28.88,-5.49 q 17.34,0 30.77,6.5 a 50,50 0 0 1 21.23,19.21 64.29,64.29 0 0 1 24.69,-18.97 79.82,79.82 0 0 1 33.22,-6.79 q 29.17,0 46.22,16.9"
         style="fill:#000000" />
    </g>
    <g
       id="g1046"
       style="fill:#000000">
      <path
         id="path1044"
         class="cls-2"
         d="m 1667.81,220.71 q -12,10.26 -14.59,27.3 h 87.53 q -2.31,-16.75 -14.16,-27.15 -11.85,-10.4 -29.46,-10.4 -17.33,0 -29.32,10.25 M 1774.55,272 h -121 q 3.18,17.06 16.61,27 13.43,9.94 33.37,10 25.41,0 41.88,-16.76 l 19.35,22.25 a 65.11,65.11 0 0 1 -26.28,18.77 q -15.9,6.36 -35.82,6.36 -25.42,0 -44.78,-10.11 A 72.8,72.8 0 0 1 1628,301.3 q -10.54,-18 -10.54,-40.87 0,-22.53 10.25,-40.59 a 72.73,72.73 0 0 1 28.45,-28.16 q 18.21,-10.11 41,-10.11 22.53,0 40.3,10 a 70.59,70.59 0 0 1 27.73,28 q 10,18 10,41.74 0,3.75 -0.57,10.68"
         style="fill:#000000" />
    </g>
    <g
       id="g1050"
       style="fill:#000000">
      <path
         id="path1048"
         class="cls-2"
         d="m 1951.33,183.3 -66.15,154.25 h -37.26 L 1781.77,183.3 h 37.55 l 48,114.39 49.39,-114.39 z"
         style="fill:#000000" />
    </g>
  </g>
  <metadata
     id="metadata861">
    <rdf:RDF>
      <cc:Work
         rdf:about="">
        <dc:title>ZeroMev-Full-White</dc:title>
      </cc:Work>
    </rdf:RDF>
  </metadata>
</svg>
